<svg width="31px" height="24px" viewBox="0 0 30 30" version="1.1" xmlns="http://www.w3.org/2000/svg" xmlns:xlink="http://www.w3.org/1999/xlink" xmlns:sketch="http://www.bohemiancoding.com/sketch/ns">
  <g id="Karma-Menu" stroke="none" stroke-width="1" fill="none" fill-rule="evenodd" sketch:type="MSPage">
    <g sketch:type="MSArtboardGroup" transform="translate(-312.000000, -124.000000)" id="Tags" fill="#FFFFFF">
      <path d="M319.111232,133.903707 C318.236229,133.903707 317.414243,133.562723 316.795262,132.943742 C316.17628,132.324533 315.835523,131.502321 315.835749,130.628451 C315.836203,128.826562 317.302093,127.359539 319.103302,127.3575 L319.106701,127.3575 C320.911082,127.3575 322.38105,128.82407 322.38309,130.626412 C322.384222,131.501868 322.044371,132.324533 321.426523,132.943515 C320.808674,133.562497 319.986461,133.903481 319.111232,133.903707 L319.111232,133.903707 Z M325.920484,147.872031 L325.377176,147.872031 L325.26797,147.833514 C324.75253,147.749684 324.295997,147.512242 323.910832,147.127077 L319.920983,143.137002 C317.947809,141.163601 315.974409,139.190201 314.001235,137.216347 C313.278032,136.492691 312.813116,135.577812 312.579978,134.419148 C312.548259,134.261457 312.533759,134.112602 312.521071,133.98142 C312.516313,133.931801 312.511555,133.882183 312.505664,133.832792 L312.5,133.785666 L312.5,126.291954 L312.520618,126.202687 C312.52311,126.191811 312.525829,126.180936 312.528547,126.170061 C312.672418,124.952715 313.725502,124.004758 314.947606,124.002945 C316.09381,124.001133 317.239787,124 318.38599,124 C319.713674,124 320.933286,124.001586 322.114607,124.004531 C322.487084,124.005438 322.816286,124.039649 323.121472,124.108979 C324.19019,124.351406 325.042309,124.801821 325.725863,125.485601 L331.121561,130.880847 C332.608975,132.367808 334.14714,133.90552 335.657891,135.420122 C336.126658,135.890022 336.384039,136.50991 336.382679,137.165822 C336.381546,137.820375 336.123033,138.43913 335.654266,138.908351 C333.83561,140.729045 332.016049,142.54906 330.196487,144.368848 L327.43214,147.133874 C327.105657,147.460358 326.716188,147.682847 326.273929,147.794771 C326.201654,147.813123 326.133684,147.82717 326.073417,147.839631 C326.050307,147.844163 326.027197,147.848921 326.004314,147.853905 L325.920484,147.872031 Z M341.775206,135.420122 C340.264456,133.90552 338.726291,132.367808 337.238877,130.880847 L331.843178,125.485601 C331.159625,124.801821 330.307505,124.351406 329.238788,124.108979 C328.933602,124.039649 328.604399,124.005438 328.231923,124.004531 C327.97205,124.003852 327.709459,124.003399 327.445055,124.002719 L332.928888,129.484966 C334.35241,130.908262 335.81966,132.374831 337.261534,133.820104 C338.157607,134.718443 339.789344,135.786028 339.787305,137.047554 C339.784586,138.305909 338.151716,139.613881 337.257229,140.509502 C336.039203,141.72866 332.359298,145.409924 330.360749,147.408927 C330.6682,147.629604 331.010997,147.772568 331.385286,147.833514 L331.494491,147.872031 L332.037799,147.872031 L332.121629,147.853905 C332.144512,147.848921 332.167622,147.844163 332.190732,147.839405 C332.250999,147.82717 332.318969,147.813123 332.391244,147.794771 C332.833503,147.682847 333.222972,147.460358 333.549456,147.133874 L336.313803,144.368848 C338.133364,142.54906 339.952926,140.729045 341.771581,138.908351 C342.240349,138.43913 342.498862,137.820375 342.499995,137.165822 C342.501354,136.50991 342.243974,135.890022 341.775206,135.420122 Z" sketch:type="MSShapeGroup"></path>
    </g>
  </g>
</svg>
